<svg width="100" height="100" viewBox="0 0 100 100" fill="none" xmlns="http://www.w3.org/2000/svg">
<g clip-path="url(#clip0_4219_27)">
<path d="M75.0205 78.7492H19.512C18.8975 78.7492 18.5242 78.0699 18.856 77.5514L39.5178 45.3259C39.6811 45.0692 39.6811 44.7425 39.5178 44.4858L18.856 12.2604C18.5242 11.7418 18.8949 11.0625 19.512 11.0625H30.5675C30.832 11.0625 31.0783 11.1973 31.2235 11.4203L52.4246 44.4858C52.5879 44.7425 52.5879 45.0692 52.4246 45.3259L39.3389 65.7336C38.7425 66.6644 39.4115 67.8856 40.516 67.8856H69.0805C69.3449 67.8856 69.5913 67.7507 69.7365 67.5278L83.9707 45.3259C84.1341 45.0692 84.1341 44.7425 83.9707 44.4858L71.0147 24.2778C70.0761 22.8129 68.4556 21.9262 66.7159 21.9262H50.8196C50.5604 21.9262 50.3166 21.7966 50.1714 21.5788L43.9747 12.2707C43.6299 11.7548 44.0007 11.0625 44.6229 11.0625H75.0205C75.285 11.0625 75.5313 11.1973 75.6765 11.4203L96.8775 44.4858C97.0409 44.7425 97.0409 45.0692 96.8775 45.3259L75.6765 78.3914C75.5339 78.6144 75.2876 78.7492 75.0205 78.7492Z" fill="#2E5842"/>
<path d="M11.1322 11.0625H0.0765998C-0.537886 11.0625 -0.911244 11.7418 -0.57937 12.2604L20.0824 44.4858C20.2457 44.7425 20.2457 45.0692 20.0824 45.3259L-0.57937 77.5514C-0.911244 78.0699 -0.540478 78.7492 0.0765998 78.7492H11.1322C11.3966 78.7492 11.6429 78.6144 11.7881 78.3914L32.9892 45.3259C33.1525 45.0692 33.1525 44.7425 32.9892 44.4858L11.7881 11.4203C11.6455 11.1973 11.3992 11.0625 11.1322 11.0625Z" fill="#2E5842"/>
<path style="mix-blend-mode:multiply" d="M39.3466 65.7153C39.3466 65.7153 34.3607 74.7952 34.3556 74.8056C32.7843 77.6887 34.2933 78.744 36.6346 78.744C41.9809 78.744 52.1808 78.6403 52.1808 78.6403L58.1701 67.901C58.1701 67.901 42.292 67.8829 40.6404 67.8829C39.8704 67.8829 38.644 67.2269 39.3466 65.7153Z" fill="url(#paint0_linear_4219_27)"/>
<path style="mix-blend-mode:multiply" d="M71.1417 24.3476C71.1417 24.3476 65.3443 15.0551 65.3365 15.0447C63.5423 12.1616 60.571 11 58.2324 11C54.5299 11 44.4985 11 44.4985 11L51.4056 21.9674C51.4056 21.9674 65.4765 21.9674 67.1307 21.9674C68.326 21.9674 70.0839 22.8386 71.1417 24.3476Z" fill="url(#paint1_linear_4219_27)"/>
</g>
<defs>
<linearGradient id="paint0_linear_4219_27" x1="267.246" y1="-356.794" x2="276.231" y2="-351.901" gradientUnits="userSpaceOnUse">
<stop stop-color="#001E2B"/>
<stop offset="0.3" stop-color="#001E2B" stop-opacity="0.9"/>
<stop offset="0.62" stop-color="#001E2B" stop-opacity="0.59"/>
<stop offset="0.95" stop-color="#001E2B" stop-opacity="0.09"/>
<stop offset="1" stop-color="#001E2B" stop-opacity="0"/>
</linearGradient>
<linearGradient id="paint1_linear_4219_27" x1="438.073" y1="616.597" x2="430.401" y2="621.371" gradientUnits="userSpaceOnUse">
<stop stop-color="#001E2B"/>
<stop offset="0.3" stop-color="#001E2B" stop-opacity="0.9"/>
<stop offset="0.62" stop-color="#001E2B" stop-opacity="0.59"/>
<stop offset="0.95" stop-color="#001E2B" stop-opacity="0.09"/>
<stop offset="1" stop-color="#001E2B" stop-opacity="0"/>
</linearGradient>
<clipPath id="clip0_4219_27">
<rect width="100" height="100" fill="white"/>
</clipPath>
</defs>
</svg>
