<svg width="67" height="14" viewBox="0 0 67 14" fill="none" xmlns="http://www.w3.org/2000/svg">
  <path
    d="M0.223326 12.5748L0 9.71764L0.167495 9.62449C0.797927 11.981 2.18906 13.2268 4.08036 13.2268C5.49011 13.2268 6.4532 12.3349 6.4532 11.0356C6.4532 8.083 0.611821 8.80717 0.611821 4.74386C0.611821 2.47818 2.652 1.05078 4.87596 1.05078C6.19265 1.05078 7.26741 1.45828 8.06534 2.08931L8.32589 4.61346L8.15839 4.66934C7.62101 2.85075 6.56254 1.6073 4.80152 1.6073C3.65232 1.6073 2.77995 2.38737 2.77995 3.63081C2.77995 6.47164 8.7516 5.96867 8.7516 10.0343C8.7516 12.3908 6.61837 13.8578 4.05942 13.8578C2.63339 13.8555 1.11198 13.3362 0.223326 12.5748Z"
    fill="#2E5842" />
  <path
    d="M13.915 13.8564C11.6888 13.8564 9.92773 12.2404 9.92773 9.7721C9.92773 6.9499 12.0982 5.01953 14.3035 5.01953C15.8994 5.01953 17.1975 5.87411 17.1975 7.35972C17.1975 7.76722 16.9928 8.0839 16.4368 8.0839H12.1912C12.1726 8.23293 12.1726 8.40058 12.1726 8.56591C12.1726 10.9038 13.4707 12.2962 15.3434 12.2962C16.1227 12.2962 16.7531 12.0168 17.3277 11.3672L17.4208 11.423C16.8834 12.8551 15.4178 13.8564 13.915 13.8564ZM12.2471 7.75092L14.7316 7.65778C15.1015 7.63915 15.2131 7.43424 15.2131 7.17577C15.2131 6.15586 14.8432 5.54113 14.0639 5.54113C13.1729 5.54113 12.4704 6.48884 12.2471 7.75092Z"
    fill="#2E5842" />
  <path
    d="M31.3201 13.6722C30.913 13.6536 30.2081 13.6349 29.4846 13.6349C28.7611 13.6349 28.0376 13.6536 27.6305 13.6722V13.4114L27.8166 13.3928C28.3354 13.3182 28.3354 13.2065 28.3354 11.7581V8.99413C28.3354 7.45264 28.0376 6.39548 26.8326 6.39548C26.5162 6.39548 26.1463 6.48862 25.7765 6.65627C25.8323 6.87981 25.8509 7.10102 25.8509 7.32457V11.7604C25.8509 13.2088 25.8509 13.3206 26.3138 13.3765L26.5744 13.4137V13.6745C26.1673 13.6559 25.4438 13.6373 24.7203 13.6373C23.9968 13.6373 23.2733 13.6559 22.8662 13.6745V13.4137L23.0523 13.3951C23.5711 13.3206 23.5711 13.2088 23.5711 11.7604V8.99413C23.5711 7.45264 23.2733 6.39548 22.0683 6.39548C21.8264 6.39548 21.4565 6.45136 21.0843 6.61902V11.7604C21.0843 13.2088 21.0843 13.3206 21.5658 13.3765L21.8078 13.4137V13.6745C21.4007 13.6559 20.6772 13.6373 19.9537 13.6373C19.2488 13.6373 18.5067 13.6559 18.0996 13.6745V13.4137L18.2857 13.3951C18.8231 13.3206 18.8231 13.2088 18.8231 11.7604V7.63892C18.8231 7.39675 18.8045 7.17554 18.5998 6.91474L18.1554 6.24645V6.15331C19.0464 5.87388 20.2887 5.39187 21.068 4.98438L21.161 5.02163C21.1238 5.35694 21.1052 5.98798 21.0866 6.39548C21.8473 5.76444 23.0151 5.02163 23.9433 5.02163C24.8529 5.02163 25.4833 5.61541 25.7229 6.43273C26.5023 5.82032 27.7631 5.02163 28.689 5.02163C29.9126 5.02163 30.6175 6.06016 30.6175 7.32457V11.7604C30.6175 13.2088 30.6175 13.3206 31.0805 13.3765L31.3224 13.4137V13.6722H31.3201Z"
    fill="#2E5842" />
  <path
    d="M33.913 10.109L36.0649 9.17989V7.47307C36.0649 6.91655 35.5833 6.211 34.4504 6.211C33.8944 6.211 33.6153 6.45317 33.6153 6.93518C33.6153 7.32404 33.6711 7.7525 33.7642 8.06685C33.5036 8.17862 32.5591 8.3649 32.2986 8.3649C32.2241 8.3649 32.1683 8.32765 32.1683 8.19725C32.1683 7.04695 34.0596 5.02344 35.8392 5.02344C36.8233 5.02344 38.3237 5.48682 38.3237 6.80478C38.3237 8.19725 38.2307 10.3884 38.2307 11.5201C38.2307 12.1139 38.4726 12.4119 38.9728 12.4119C39.2519 12.4119 39.4543 12.3188 39.6032 12.1884L39.659 12.2256C39.5474 13.043 38.8053 13.8044 37.898 13.8044C36.9326 13.8044 36.3022 13.3038 36.0253 12.5237C35.581 13.0243 34.932 13.7858 33.9665 13.7858C32.8918 13.7858 32.0566 13.043 32.0566 11.8554C32.0566 10.9263 32.7615 10.591 33.913 10.109ZM35.0436 10.109C34.6179 10.3698 34.3015 10.6841 34.3015 11.2593C34.3015 12.058 34.7273 12.4841 35.3763 12.4841C35.6368 12.4841 35.8206 12.4282 36.0253 12.3351L36.0439 9.47562L35.0436 10.109Z"
    fill="#2E5842" />
  <path
    d="M48.878 13.3935V13.6729C47.987 13.6543 47.0425 13.6357 46.0957 13.6357C45.1303 13.6357 44.1858 13.6543 43.2948 13.6729V13.3935C44.6859 13.3935 44.9442 13.0233 44.9442 11.4445V9.53278H39.4727V9.45826L47.1123 1.03125H47.2239V8.28933H48.429C49.4107 8.28933 49.9132 8.23345 50.4692 8.12168L49.8201 9.53278H47.2263V11.4445C47.2263 13.0233 47.4868 13.3935 48.878 13.3935ZM44.9465 4.00015L41.0708 8.287H44.9465V4.00015Z"
    fill="#2E5842" />
  <path
    d="M53.8839 12.2603C53.8839 13.1335 53.179 13.8577 52.2345 13.8577C51.3249 13.8577 50.6387 13.1335 50.6387 12.2603C50.6387 11.3499 51.3249 10.6094 52.2345 10.6094C53.179 10.6071 53.8839 11.3499 53.8839 12.2603Z"
    fill="#2E5842" />
  <path
    d="M57.0927 10.109L59.2446 9.17989V7.47307C59.2446 6.91655 58.763 6.211 57.6301 6.211C57.0741 6.211 56.795 6.45317 56.795 6.93518C56.795 7.32404 56.8508 7.7525 56.9439 8.06685C56.6833 8.17862 55.7388 8.3649 55.4783 8.3649C55.4038 8.3649 55.348 8.32765 55.348 8.19725C55.348 7.04695 57.2393 5.02344 59.0189 5.02344C60.0006 5.02344 61.5034 5.48682 61.5034 6.80478C61.5034 8.19725 61.4104 10.3884 61.4104 11.5201C61.4104 12.1139 61.6523 12.4119 62.1525 12.4119C62.4316 12.4119 62.634 12.3188 62.7829 12.1884L62.8387 12.2256C62.7271 13.043 61.985 13.8044 61.0777 13.8044C60.1123 13.8044 59.4842 13.3038 59.205 12.5237C58.7607 13.0243 58.1117 13.7858 57.1462 13.7858C56.0715 13.7858 55.2363 13.043 55.2363 11.8554C55.2363 10.9263 55.9412 10.591 57.0927 10.109ZM58.2233 10.109C57.7976 10.3698 57.4812 10.6841 57.4812 11.2593C57.4812 12.058 57.9069 12.4841 58.556 12.4841C58.8165 12.4841 59.0003 12.4282 59.205 12.3351L59.2236 9.47562L58.2233 10.109Z"
    fill="#2E5842" />
  <path
    d="M66.9992 13.6723C66.5921 13.6537 65.8686 13.6351 65.1451 13.6351C64.4402 13.6351 63.6981 13.6537 63.291 13.6723V13.4115L63.4771 13.3929C64.0145 13.3184 64.0145 13.2066 64.0145 11.7583V7.63673C64.0145 7.39456 63.9959 7.17335 63.7912 6.91255L63.3468 6.24426V6.15112C64.2378 5.87169 65.4801 5.38968 66.2594 4.98219L66.3524 5.01944C66.3152 5.40831 66.278 6.26289 66.278 7.24786V11.7583C66.278 13.2066 66.278 13.3184 66.7595 13.3743L67.0015 13.4115V13.6723H66.9992ZM65.1823 3.57342C64.496 3.57342 63.8842 3.01689 63.8842 2.25546C63.8842 1.47539 64.496 0.9375 65.1823 0.9375C65.8872 0.9375 66.4804 1.47539 66.4804 2.25546C66.4804 3.01689 65.8872 3.57342 65.1823 3.57342Z"
    fill="#2E5842" />
</svg>