<svg width="48" height="48" viewBox="0 0 48 48" fill="none" xmlns="http://www.w3.org/2000/svg">
<path d="M43.0767 9.13228H28.0478C28.0389 9.13228 28.0322 9.12561 28.0322 9.11672V4.8745C28.0322 4.31672 27.58 3.8645 27.0222 3.8645H21.2222C20.6644 3.8645 20.2122 4.31672 20.2122 4.8745V9.11672C20.2122 9.12561 20.2055 9.13228 20.1967 9.13228H4.79332C3.48999 9.13228 2.43332 10.1889 2.43332 11.4923V38.3612C2.43332 39.6645 3.48999 40.7212 4.79332 40.7212H43.0767C44.38 40.7212 45.4367 39.6645 45.4367 38.3612V11.4923C45.4367 10.1889 44.38 9.13228 43.0767 9.13228ZM22.2178 5.85339H26.0289C26.0378 5.85339 26.0444 5.86006 26.0444 5.86895V16.3967C26.0444 16.4056 26.0378 16.4123 26.0289 16.4123H22.2178C22.2089 16.4123 22.2022 16.4056 22.2022 16.3967V5.86895C22.2022 5.86006 22.2089 5.85339 22.2178 5.85339ZM39.2555 36.0323H7.13887C7.12999 36.0323 7.12332 36.0256 7.12332 36.0167V15.2023C7.12332 14.4401 7.7411 13.8223 8.50332 13.8223H20.1967C20.2055 13.8223 20.2122 13.8289 20.2122 13.8378V14.8467C20.2122 14.8556 20.2055 14.8623 20.1967 14.8623H19.8055C18.9711 14.8623 18.22 15.4601 18.12 16.2889C18.0011 17.2767 18.7722 18.1189 19.7367 18.1189H28.0655C28.9011 18.1189 29.6511 17.5212 29.7511 16.6923C29.87 15.7045 29.0989 14.8634 28.1344 14.8634H28.0322V13.8389C28.0322 13.8301 28.0389 13.8234 28.0478 13.8234H40.7322C40.7411 13.8234 40.7478 13.8301 40.7478 13.8389V34.5412C40.7478 35.3656 40.0789 36.0345 39.2544 36.0345L39.2555 36.0323ZM37.3778 24.1489H24.8089V22.1601H37.3778V24.1489ZM37.3778 28.7745H24.8089V26.7856H37.3778V28.7745ZM37.3778 33.3989H24.8089V31.4101H37.3778V33.3989ZM22.3089 33.5667C22.1833 33.5667 22.0567 33.5434 21.9333 33.4923C21.9244 33.4889 21.06 33.1367 19.8255 32.7123C18.6655 32.3134 17.8922 32.1967 17.8844 32.1956C17.3967 32.1234 17.0322 31.7045 17.0322 31.2112V29.3756C17.0322 28.9189 17.2767 28.5389 17.7167 28.4289C17.8867 28.3534 19.1733 27.6712 19.1733 24.5245C19.1733 21.3778 17.43 21.1201 16.1189 21.1201C14.6967 21.1201 13.0644 21.5067 13.0644 24.5245C13.0644 27.5423 14.3511 28.3534 14.5211 28.4289C14.9611 28.5389 15.2055 28.9189 15.2055 29.3756V31.2112C15.2055 31.7067 14.8411 32.1256 14.3511 32.1956C14.3455 32.1956 13.5733 32.3123 12.4122 32.7123C11.1778 33.1367 10.3133 33.4889 10.3044 33.4923C9.79554 33.7001 9.21554 33.4567 9.00776 32.9478C8.79999 32.4389 9.04332 31.8589 9.5511 31.6512C9.58776 31.6356 10.4722 31.2745 11.7655 30.8301C12.3389 30.6334 12.8333 30.4956 13.2155 30.4023V29.9656C12.3655 29.3789 11.0744 27.9278 11.0744 24.5234C11.0744 21.1189 12.9122 19.1301 16.1178 19.1301C19.3233 19.1301 21.1611 21.0956 21.1611 24.5234C21.1611 27.9512 19.87 29.3789 19.02 29.9656V30.4023C19.4022 30.4956 19.8967 30.6334 20.47 30.8301C21.7633 31.2745 22.6478 31.6356 22.6844 31.6512C23.1922 31.8589 23.4367 32.4401 23.2278 32.9478C23.07 33.3334 22.6989 33.5667 22.3067 33.5667H22.3089Z" fill="#2E5842"/>
<path d="M8.38223 13.8244C6.07889 13.8244 4.87667 13.8167 4.10889 13.8167C2.67778 13.8167 2.43445 14.9067 2.43445 16.7867C2.43445 18.6667 2.43445 22.6633 2.43445 22.6633H7.12334C7.12334 22.6633 7.12334 15.9744 7.12334 15.2322C7.12334 13.9955 8.38334 13.8244 8.38334 13.8244H8.38223Z" fill="url(#paint0_linear_4447_256)"/>
<path d="M39.4822 36.0244C41.7855 36.0244 42.9877 36.0322 43.7555 36.0322C45.1866 36.0322 45.43 34.9422 45.43 33.0622C45.43 31.1822 45.43 27.1855 45.43 27.1855H40.7411C40.7411 27.1855 40.7466 33.8744 40.7411 34.6167C40.7333 35.6967 39.4811 36.0244 39.4811 36.0244H39.4822Z" fill="url(#paint1_linear_4447_256)"/>
<defs>
<linearGradient id="paint0_linear_4447_256" x1="5.59223" y1="12.03" x2="5.11556" y2="19.8978" gradientUnits="userSpaceOnUse">
<stop stop-color="#001E2B"/>
<stop offset="0.3" stop-color="#001E2B" stop-opacity="0.9"/>
<stop offset="0.62" stop-color="#001E2B" stop-opacity="0.59"/>
<stop offset="0.95" stop-color="#001E2B" stop-opacity="0.09"/>
<stop offset="1" stop-color="#001E2B" stop-opacity="0"/>
</linearGradient>
<linearGradient id="paint1_linear_4447_256" x1="42.2722" y1="37.8189" x2="42.7489" y2="29.9522" gradientUnits="userSpaceOnUse">
<stop stop-color="#001E2B"/>
<stop offset="0.3" stop-color="#001E2B" stop-opacity="0.9"/>
<stop offset="0.62" stop-color="#001E2B" stop-opacity="0.59"/>
<stop offset="0.95" stop-color="#001E2B" stop-opacity="0.09"/>
<stop offset="1" stop-color="#001E2B" stop-opacity="0"/>
</linearGradient>
</defs>
</svg>
