<svg width="200" height="150" viewBox="0 0 200 150" fill="none" xmlns="http://www.w3.org/2000/svg">
<path d="M88.6576 123.419L63.3324 128.966V138.22H135.912L88.6576 131.065V123.419Z" fill="#CCD7D1"/>
<path d="M82.2346 60.1935C84.415 59.7126 86.6956 60.0345 88.6576 61.1002V24.2347L135.912 11.7802H63.3324V64.3342L82.2346 60.1935Z" fill="#CCD7D1"/>
<path d="M63.3324 64.3342V11.781L135.912 11.7802V138.22H63.3324V132.56" stroke="#18332A" stroke-linecap="round" stroke-linejoin="round"/>
<path d="M88.6576 61.1002V24.2347L135.912 11.7802V138.22L88.6576 131.065V127.013" stroke="#18332A" stroke-linecap="round" stroke-linejoin="round"/>
<path d="M95.7437 121.867L52.2549 131.392C51.0609 131.654 49.827 131.678 48.6237 131.463C47.4204 131.248 46.2712 130.798 45.242 130.138C44.2127 129.479 43.3234 128.623 42.625 127.62C41.9266 126.617 41.4326 125.486 41.1714 124.291L31.6464 80.8027C31.1631 78.6121 31.4903 76.3205 32.5674 74.3527C31.8951 75.4849 31.1816 76.5921 30.4284 77.6722C29.692 78.7232 29.1819 79.9156 28.9304 81.174C28.6789 82.4324 28.6915 83.7292 28.9674 84.9825L38.4924 128.475C38.7539 129.669 39.248 130.8 39.9466 131.803C40.6451 132.806 41.5345 133.662 42.5637 134.321C43.593 134.981 44.7421 135.431 45.9454 135.646C47.1487 135.861 48.3826 135.838 49.5767 135.576L93.0647 126.051C94.3187 125.778 95.5023 125.247 96.5404 124.493C97.5786 123.738 98.4486 122.776 99.0954 121.668C99.7617 120.532 100.47 119.42 101.218 118.336C99.8801 120.136 97.9353 121.391 95.7437 121.867Z" fill="#18332A"/>
<path d="M95.7437 121.867L52.2549 131.392C51.0609 131.654 49.827 131.678 48.6237 131.463C47.4204 131.248 46.2712 130.798 45.242 130.138C44.2127 129.479 43.3234 128.623 42.625 127.62C41.9266 126.617 41.4326 125.486 41.1714 124.291L31.6464 80.8027C31.1631 78.6121 31.4903 76.3205 32.5674 74.3527C31.8951 75.4849 31.1816 76.5921 30.4284 77.6722C29.692 78.7232 29.1819 79.9156 28.9304 81.174C28.6789 82.4324 28.6915 83.7292 28.9674 84.9825L38.4924 128.475C38.7539 129.669 39.248 130.8 39.9466 131.803C40.6451 132.806 41.5345 133.662 42.5637 134.321C43.593 134.981 44.7421 135.431 45.9454 135.646C47.1487 135.861 48.3826 135.838 49.5767 135.576L93.0647 126.051C94.3187 125.778 95.5023 125.247 96.5404 124.493C97.5786 123.738 98.4486 122.776 99.0954 121.668C99.7617 120.532 100.47 119.42 101.218 118.336C99.8801 120.136 97.9353 121.391 95.7437 121.867Z" stroke="#18332A" stroke-linecap="round" stroke-linejoin="round"/>
<path d="M94.5737 73.026L93.3189 67.2945C92.7905 64.8831 91.3259 62.7803 89.2473 61.4487C87.1686 60.117 84.6462 59.6655 82.2347 60.1935L38.7459 69.7185C36.3346 70.2467 34.2319 71.7112 32.9003 73.7897C31.5688 75.8683 31.1175 78.3907 31.6457 80.802L41.1707 124.291C41.5645 126.089 42.4828 127.73 43.8093 129.007C45.1359 130.284 46.8112 131.138 48.6234 131.463C49.8268 131.678 51.0608 131.654 52.2549 131.392L95.7437 121.867C97.5422 121.474 99.1835 120.556 100.46 119.229C101.736 117.903 102.591 116.227 102.914 114.415C103.13 113.212 103.106 111.978 102.844 110.784L99.2199 94.236" stroke="#18332A" stroke-linecap="round" stroke-linejoin="round"/>
<path d="M79.3164 109.975L67.8751 89.7255C68.959 89.0283 69.7633 87.9723 70.1475 86.7422C70.5317 85.5121 70.4713 84.1861 69.977 82.996C69.4827 81.8059 68.5858 80.8273 67.4431 80.2314C66.3005 79.6355 64.9847 79.4602 63.7259 79.736C62.467 80.0119 61.3452 80.7214 60.5564 81.7405C59.7676 82.7596 59.3621 84.0235 59.4108 85.3113C59.4594 86.5991 59.9591 87.8288 60.8225 88.7856C61.6859 89.7423 62.8581 90.3651 64.1341 90.5452L62.2066 113.727L79.3164 109.975Z" fill="#18332A"/>
<path d="M79.3164 109.975L67.8751 89.7255C68.959 89.0283 69.7633 87.9723 70.1475 86.7422C70.5317 85.5121 70.4713 84.1861 69.977 82.996C69.4827 81.8059 68.5858 80.8273 67.4431 80.2314C66.3005 79.6355 64.9847 79.4602 63.7259 79.736C62.467 80.0119 61.3452 80.7214 60.5564 81.7405C59.7676 82.7596 59.3621 84.0235 59.4108 85.3113C59.4594 86.5991 59.9591 87.8288 60.8225 88.7856C61.6859 89.7423 62.8581 90.3651 64.1341 90.5452L62.2066 113.727L79.3164 109.975Z" stroke="#18332A" stroke-linecap="round" stroke-linejoin="round"/>
<path d="M99.1262 80.85L132.395 62.8042L128.08 54.8512L77.4197 82.3305C76.8973 82.6138 76.4359 82.9973 76.0618 83.459C75.6877 83.9208 75.4082 84.4517 75.2394 85.0215C74.9846 85.8795 74.9901 86.7938 75.2551 87.6488C75.5201 88.5037 76.0327 89.2608 76.7281 89.8243C77.4235 90.3878 78.2705 90.7323 79.1617 90.8143C80.053 90.8963 80.9486 90.7121 81.7352 90.285L83.9184 89.1007L87.6197 95.9257C87.9271 96.4955 88.4229 96.9407 89.0223 97.1854C89.6216 97.4301 90.2873 97.4591 90.9057 97.2673C91.524 97.0756 92.0566 96.6751 92.4123 96.1342C92.7681 95.5933 92.925 94.9457 92.8562 94.302C92.8179 93.9369 92.708 93.5829 92.5329 93.2602L88.8317 86.4352L93.5889 83.8545L99.3519 94.4782C99.6379 95.0452 100.088 95.5125 100.645 95.819C101.201 96.1254 101.836 96.2568 102.468 96.1958C103.1 96.1349 103.699 95.8844 104.186 95.4773C104.674 95.0702 105.027 94.5254 105.199 93.9142C105.313 93.5081 105.344 93.0832 105.291 92.6647C105.238 92.2462 105.101 91.8427 104.888 91.4782L99.1262 80.85Z" stroke="#18332A" stroke-linecap="round" stroke-linejoin="round"/>
<path d="M156.358 50.3332L151.238 40.8937C150.394 39.3308 149.25 37.9496 147.872 36.8292C146.494 35.7088 144.909 34.8712 143.206 34.3644C141.504 33.8576 139.719 33.6915 137.952 33.8756C136.186 34.0598 134.473 34.5905 132.912 35.4375C131.351 36.2844 129.972 37.431 128.855 38.8115C127.737 40.192 126.903 41.7793 126.4 43.4827C125.897 45.186 125.734 46.9718 125.922 48.7379C126.11 50.504 126.645 52.2157 127.495 53.775L132.615 63.2145C134.341 66.3286 137.228 68.635 140.646 69.6319C144.064 70.6289 147.737 70.2357 150.867 68.538C153.997 66.8403 156.33 63.9754 157.358 60.5665C158.386 57.1577 158.027 53.4807 156.358 50.3355V50.3332ZM144.718 57.1995C144.22 57.4696 143.635 57.5307 143.091 57.3695C142.548 57.2084 142.091 56.8381 141.821 56.34L138.275 49.8037C138.006 49.3053 137.945 48.7204 138.105 48.177C138.184 47.9077 138.316 47.6568 138.493 47.4388C138.67 47.2207 138.888 47.0398 139.135 46.9065C139.506 46.7053 139.929 46.6187 140.35 46.6575C140.771 46.6964 141.17 46.859 141.499 47.1247C141.717 47.3017 141.899 47.5192 142.032 47.766L145.577 54.3C145.712 54.5466 145.796 54.8174 145.825 55.0967C145.855 55.376 145.829 55.6583 145.748 55.9275C145.669 56.197 145.537 56.4481 145.36 56.6664C145.183 56.8848 144.965 57.0659 144.718 57.1995Z" fill="#18332A"/>
<path d="M156.358 50.3332L151.238 40.8937C150.394 39.3308 149.25 37.9496 147.872 36.8292C146.494 35.7088 144.909 34.8712 143.206 34.3644C141.504 33.8576 139.719 33.6915 137.952 33.8756C136.186 34.0598 134.473 34.5905 132.912 35.4375C131.351 36.2844 129.972 37.431 128.855 38.8115C127.737 40.192 126.903 41.7793 126.4 43.4827C125.897 45.186 125.734 46.9718 125.922 48.7379C126.11 50.504 126.645 52.2157 127.495 53.775L132.615 63.2145C134.341 66.3286 137.228 68.635 140.646 69.6319C144.064 70.6289 147.737 70.2357 150.867 68.538C153.997 66.8403 156.33 63.9754 157.358 60.5665C158.386 57.1577 158.027 53.4807 156.358 50.3355V50.3332ZM144.718 57.1995C144.22 57.4696 143.635 57.5307 143.091 57.3695C142.548 57.2084 142.091 56.8381 141.821 56.34L138.275 49.8037C138.006 49.3053 137.945 48.7204 138.105 48.177C138.184 47.9077 138.316 47.6568 138.493 47.4388C138.67 47.2207 138.888 47.0398 139.135 46.9065C139.506 46.7053 139.929 46.6187 140.35 46.6575C140.771 46.6964 141.17 46.859 141.499 47.1247C141.717 47.3017 141.899 47.5192 142.032 47.766L145.577 54.3C145.712 54.5466 145.796 54.8174 145.825 55.0967C145.855 55.376 145.829 55.6583 145.748 55.9275C145.669 56.197 145.537 56.4481 145.36 56.6664C145.183 56.8848 144.965 57.0659 144.718 57.1995Z" stroke="#18332A" stroke-linecap="round" stroke-linejoin="round"/>
<path d="M34.6764 27.8122H43.4446" stroke="#18332A" stroke-linecap="round" stroke-linejoin="round"/>
<path d="M39.0602 32.196V23.4285" stroke="#18332A" stroke-linecap="round" stroke-linejoin="round"/>
<path d="M150.144 125.41L156.344 131.61" stroke="#18332A" stroke-linecap="round" stroke-linejoin="round"/>
<path d="M150.144 131.61L156.344 125.41" stroke="#18332A" stroke-linecap="round" stroke-linejoin="round"/>
<path d="M168.088 88.0815L171.25 91.2435" stroke="#18332A" stroke-linecap="round" stroke-linejoin="round"/>
<path d="M168.088 91.2435L171.25 88.0815" stroke="#18332A" stroke-linecap="round" stroke-linejoin="round"/>
<path d="M147.345 26.6812L150.056 31.152L153.244 24.4725" stroke="#18332A" stroke-linecap="round" stroke-linejoin="round"/>
<path d="M66.9706 47.3917H71.7533" stroke="#18332A" stroke-linecap="round" stroke-linejoin="round"/>
<path d="M69.3616 49.7827V45.0007" stroke="#18332A" stroke-linecap="round" stroke-linejoin="round"/>
</svg>
