<svg width="200" height="150" viewBox="0 0 200 150" fill="none" xmlns="http://www.w3.org/2000/svg">
<path d="M90.2913 88.1198L79.9323 91.6013M75.2448 93.177L54.4653 100.16L96.7676 112.101V86.7788" stroke="#18332A" stroke-linecap="round" stroke-linejoin="round"/>
<path d="M122.476 93.1995C121.054 93.7265 119.581 94.1041 118.08 94.326V98.577C118.08 99.4393 117.738 100.266 117.128 100.876C116.518 101.486 115.691 101.828 114.829 101.828C113.967 101.828 113.14 101.486 112.53 100.876C111.92 100.266 111.578 99.4393 111.578 98.577V94.326C105.951 93.4928 101.019 90.5295 97.6278 86.2823L96.7683 86.7788V112.101L104.838 114.379L147.14 100.161L122.476 93.1995Z" fill="#CCD7D1"/>
<path d="M96.7676 86.7788V112.101L104.838 114.378L147.14 100.161L122.477 93.1995" stroke="#18332A" stroke-linecap="round" stroke-linejoin="round"/>
<path d="M104.838 114.378V146.25H147.14V124.927" stroke="#18332A" stroke-linecap="round" stroke-linejoin="round"/>
<path d="M89.4386 133.765L54.4653 123.894V146.25H104.838V114.379L89.4386 133.765Z" fill="#18332A"/>
<path d="M54.4653 123.893V146.25H104.838V114.378" stroke="#18332A" stroke-linecap="round" stroke-linejoin="round"/>
<path d="M54.4653 100.161L39.0663 119.547L89.4385 133.765L104.838 114.378L54.4653 100.161Z" stroke="#18332A" stroke-linecap="round" stroke-linejoin="round"/>
<path d="M147.14 100.161L104.838 114.378L119.771 134.126L162.074 119.908L147.14 100.161Z" stroke="#18332A" stroke-linecap="round" stroke-linejoin="round"/>
<path d="M45.4188 64.4377L29.1145 94.3815H61.723L45.4188 64.4377Z" fill="#CCD7D1"/>
<path d="M45.4188 64.4377L29.1145 94.3815H61.723L45.4188 64.4377Z" stroke="#18332A" stroke-linecap="round" stroke-linejoin="round"/>
<path d="M44.2488 73.7955L39.5081 84.4695" stroke="#18332A" stroke-linecap="round" stroke-linejoin="round"/>
<path d="M39.5081 84.4695L48.1931 80.5807" stroke="#18332A" stroke-linecap="round" stroke-linejoin="round"/>
<path d="M48.193 80.5807C48.1697 80.5605 45.9122 93.0307 45.9122 93.0307" stroke="#18332A" stroke-linecap="round" stroke-linejoin="round"/>
<path d="M43.9976 87.7717L45.9123 93.0307L50.0733 88.9627" stroke="#18332A" stroke-linecap="round" stroke-linejoin="round"/>
<path d="M77.9837 88.5525L73.9412 91.1377L76.9239 95.802L80.9664 93.2175L77.9837 88.5525Z" stroke="#18332A" stroke-linecap="round" stroke-linejoin="round"/>
<path d="M77.353 83.2605L69.4022 88.344L71.9867 92.3865L79.9382 87.303L77.353 83.2605Z" stroke="#18332A" stroke-linecap="round" stroke-linejoin="round"/>
<path d="M73.9517 91.131L79.0614 90.2392" stroke="#18332A" stroke-linecap="round" stroke-linejoin="round"/>
<path d="M74.8622 92.5785L79.9854 91.6845" stroke="#18332A" stroke-linecap="round" stroke-linejoin="round"/>
<path d="M75.8425 94.1115L80.9658 93.2175" stroke="#18332A" stroke-linecap="round" stroke-linejoin="round"/>
<path d="M161.104 93.2175L158.337 97.1385L162.861 100.33L165.628 96.4095L161.104 93.2175Z" stroke="#18332A" stroke-linecap="round" stroke-linejoin="round"/>
<path d="M166.965 94.5143L161.524 102.225L165.444 104.991L170.885 97.2803L166.965 94.5143Z" stroke="#18332A" stroke-linecap="round" stroke-linejoin="round"/>
<path d="M165.621 96.42L161.226 99.1763" stroke="#18332A" stroke-linecap="round" stroke-linejoin="round"/>
<path d="M164.231 95.424L159.825 98.187" stroke="#18332A" stroke-linecap="round" stroke-linejoin="round"/>
<path d="M162.744 94.3747L158.338 97.1385" stroke="#18332A" stroke-linecap="round" stroke-linejoin="round"/>
<path d="M151.716 51.6975L155.379 50.4982L154.824 48.8017L152.856 49.4467L151.728 45.9982L148.281 47.127L147.14 49.3777L150.587 48.2497L151.716 51.6975Z" fill="#18332A"/>
<path d="M151.716 51.6975L155.379 50.4982L154.824 48.8017L152.856 49.4467L151.728 45.9982L148.281 47.127L147.14 49.3777L150.587 48.2497L151.716 51.6975Z" stroke="#18332A" stroke-linecap="round" stroke-linejoin="round"/>
<path d="M156.005 63.0315L153.489 63.855L152.348 66.1057L156.56 64.7272L156.005 63.0315Z" fill="#18332A"/>
<path d="M156.005 63.0315L153.489 63.855L152.348 66.1057L156.56 64.7272L156.005 63.0315Z" stroke="#18332A" stroke-linecap="round" stroke-linejoin="round"/>
<path d="M157.479 52.8915C158.358 51.8767 159.6 49.0702 159.786 48.1327C159.938 47.3635 159.932 46.5716 159.769 45.8047C159.606 45.0378 159.289 44.312 158.838 43.671L155.391 44.799L154.25 47.0497L157.697 45.9217C158.421 46.9499 158.792 48.1858 158.753 49.4431C158.713 50.7003 158.266 51.9107 157.479 52.8915Z" fill="#18332A"/>
<path d="M157.479 52.8915C158.358 51.8767 159.6 49.0702 159.786 48.1327C159.938 47.3635 159.932 46.5716 159.769 45.8047C159.606 45.0378 159.289 44.312 158.838 43.671L155.391 44.799L154.25 47.0497L157.697 45.9217C158.421 46.9499 158.792 48.1858 158.753 49.4431C158.713 50.7003 158.266 51.9107 157.479 52.8915Z" stroke="#18332A" stroke-linecap="round" stroke-linejoin="round"/>
<path d="M157.244 68.5867L158.276 71.7382L159.416 69.4875L158.94 68.0317L157.244 68.5867Z" fill="#18332A"/>
<path d="M157.244 68.5867L158.276 71.7382L159.416 69.4875L158.94 68.0317L157.244 68.5867Z" stroke="#18332A" stroke-linecap="round" stroke-linejoin="round"/>
<path d="M164.529 60.2407L160.317 61.6192L157.466 52.9072C157.056 53.4154 156.564 53.8508 156.009 54.195L159.177 63.87L163.389 62.4915L165.627 69.3315L166.768 67.0807L164.529 60.2407Z" fill="#18332A"/>
<path d="M164.529 60.2407L160.317 61.6192L157.466 52.9072C157.056 53.4154 156.564 53.8508 156.009 54.195L159.177 63.87L163.389 62.4915L165.627 69.3315L166.768 67.0807L164.529 60.2407Z" stroke="#18332A" stroke-linecap="round" stroke-linejoin="round"/>
<path d="M163.389 62.4922L159.177 63.8707L156.009 54.1957C158.821 52.4512 159.634 48.6742 157.697 45.9225L154.25 47.0505L155.379 50.4982L151.715 51.6975L150.586 48.2497L147.139 49.3777C147.205 52.7497 150.099 55.3072 153.392 55.0515L156.559 64.7265L152.347 66.105L154.586 72.945L158.274 71.7375L157.243 68.586L160.907 67.3867L161.938 70.5382L165.627 69.3307L163.388 62.4907L163.389 62.4922Z" stroke="#18332A" stroke-linecap="round" stroke-linejoin="round"/>
<path d="M111.578 94.326V98.577C111.578 99.4393 111.92 100.266 112.53 100.876C113.14 101.486 113.967 101.828 114.829 101.828C115.691 101.828 116.518 101.486 117.128 100.876C117.738 100.266 118.08 99.4393 118.08 98.577V94.326C115.925 94.6448 113.734 94.6448 111.579 94.326H111.578Z" stroke="#18332A" stroke-linecap="round" stroke-linejoin="round"/>
<path d="M118.08 50.7998V46.6178C118.08 45.7555 117.738 44.9285 117.128 44.3188C116.518 43.709 115.691 43.3665 114.829 43.3665C113.967 43.3665 113.14 43.709 112.53 44.3188C111.92 44.9285 111.578 45.7555 111.578 46.6178V50.7998C113.734 50.481 115.924 50.481 118.08 50.7998Z" stroke="#18332A" stroke-linecap="round" stroke-linejoin="round"/>
<path d="M132.021 86.277L135.703 88.4025C136.449 88.824 137.332 88.9339 138.158 88.7083C138.985 88.4826 139.689 87.9396 140.118 87.1974C140.546 86.4553 140.665 85.5739 140.447 84.7451C140.229 83.9162 139.692 83.207 138.954 82.7715L135.272 80.646C134.471 82.6724 133.375 84.5697 132.021 86.277Z" stroke="#18332A" stroke-linecap="round" stroke-linejoin="round"/>
<path d="M97.5775 58.8825L93.9557 56.7915C93.2095 56.37 92.3271 56.2601 91.5004 56.4857C90.6736 56.7114 89.9694 57.2544 89.5409 57.9966C89.1123 58.7387 88.9942 59.6201 89.2121 60.4489C89.43 61.2778 89.9663 61.987 90.7045 62.4225L94.3262 64.5135C95.1283 62.4874 96.2237 60.5901 97.5775 58.8825Z" stroke="#18332A" stroke-linecap="round" stroke-linejoin="round"/>
<path d="M135.272 64.5487L138.954 62.4232C139.701 61.9921 140.246 61.282 140.469 60.4491C140.692 59.6162 140.575 58.7288 140.144 57.9821C139.713 57.2354 139.003 56.6905 138.17 56.4674C137.337 56.2442 136.45 56.3611 135.703 56.7922L132.021 58.9177C133.375 60.6252 134.471 62.5225 135.272 64.5487Z" stroke="#18332A" stroke-linecap="round" stroke-linejoin="round"/>
<path d="M94.3262 80.6805L90.7045 82.7715C89.9578 83.2026 89.4129 83.9128 89.1897 84.7456C88.9666 85.5785 89.0835 86.4659 89.5146 87.2126C89.9457 87.9593 90.6559 88.5042 91.4887 88.7273C92.3216 88.9505 93.209 88.8336 93.9557 88.4025L97.5775 86.3115C96.224 84.6037 95.1286 82.7065 94.3262 80.6805Z" stroke="#18332A" stroke-linecap="round" stroke-linejoin="round"/>
<path d="M127.609 90.4717C137.5 83.4135 139.797 69.6727 132.739 59.7817C125.681 49.8907 111.94 47.5942 102.049 54.6517C92.1579 61.7107 89.8614 75.4507 96.9189 85.3417C103.977 95.2335 117.718 97.53 127.609 90.4717Z" stroke="#18332A" stroke-linecap="round" stroke-linejoin="round"/>
<path d="M78.9204 58.032L114.829 64.4032" stroke="#18332A" stroke-linecap="round" stroke-linejoin="round"/>
<path d="M76.7042 65.628L111.578 80.0468" stroke="#18332A" stroke-linecap="round" stroke-linejoin="round"/>
<path d="M116.704 80.5028C121.089 79.467 123.806 75.0728 122.77 70.6868C121.735 66.3015 117.34 63.585 112.955 64.6208C108.569 65.6558 105.853 70.0508 106.888 74.436C107.924 78.822 112.318 81.5378 116.704 80.5028Z" fill="#18332A"/>
<path d="M116.704 80.5028C121.089 79.467 123.806 75.0728 122.77 70.6868C121.735 66.3015 117.34 63.585 112.955 64.6208C108.569 65.6558 105.853 70.0508 106.888 74.436C107.924 78.822 112.318 81.5378 116.704 80.5028Z" stroke="#18332A" stroke-linecap="round" stroke-linejoin="round"/>
<path d="M69.6033 50.0122C64.3998 50.0122 60.1818 54.2302 60.1818 59.4337C60.1818 64.6372 64.3998 68.8552 69.6033 68.8552C74.8068 68.8552 79.0248 64.6372 79.0248 59.4337C79.0248 54.2302 74.8068 50.0122 69.6033 50.0122Z" stroke="#18332A" stroke-linecap="round" stroke-linejoin="round"/>
<path d="M69.6032 56.4165C68.8031 56.4165 68.0359 56.7343 67.4702 57.3C66.9045 57.8657 66.5867 58.633 66.5867 59.433C66.5867 60.233 66.9045 61.0003 67.4702 61.566C68.0359 62.1317 68.8031 62.4495 69.6032 62.4495C70.4032 62.4495 71.1705 62.1317 71.7362 61.566C72.3019 61.0003 72.6197 60.233 72.6197 59.433C72.6197 58.633 72.3019 57.8657 71.7362 57.3C71.1705 56.7343 70.4032 56.4165 69.6032 56.4165Z" fill="#18332A"/>
<path d="M69.6032 56.4165C68.8031 56.4165 68.0359 56.7343 67.4702 57.3C66.9045 57.8657 66.5867 58.633 66.5867 59.433C66.5867 60.233 66.9045 61.0003 67.4702 61.566C68.0359 62.1317 68.8031 62.4495 69.6032 62.4495C70.4032 62.4495 71.1705 62.1317 71.7362 61.566C72.3019 61.0003 72.6197 60.233 72.6197 59.433C72.6197 58.633 72.3019 57.8657 71.7362 57.3C71.1705 56.7343 70.4032 56.4165 69.6032 56.4165Z" stroke="#18332A" stroke-linecap="round" stroke-linejoin="round"/>
<path d="M66.5859 68.3617V71.4135H72.6197V68.361C70.6623 69.0192 68.5433 69.02 66.5859 68.3617Z" fill="#18332A"/>
<path d="M66.5859 68.3617V71.4135H72.6197V68.361C70.6623 69.0192 68.5433 69.02 66.5859 68.3617Z" stroke="#18332A" stroke-linecap="round" stroke-linejoin="round"/>
<path d="M72.6197 50.5057V47.4547H66.5859V50.5057C68.5433 49.8475 70.6623 49.8475 72.6197 50.5057Z" fill="#18332A"/>
<path d="M72.6197 50.5057V47.4547H66.5859V50.5057C68.5433 49.8475 70.6623 49.8475 72.6197 50.5057Z" stroke="#18332A" stroke-linecap="round" stroke-linejoin="round"/>
<path d="M75.8259 66.5107L78.4689 68.0362L81.4862 62.811L78.8432 61.2855C78.4345 63.3098 77.3748 65.1448 75.8259 66.5107Z" fill="#18332A"/>
<path d="M75.8259 66.5107L78.4689 68.0362L81.4862 62.811L78.8432 61.2855C78.4345 63.3098 77.3748 65.1448 75.8259 66.5107Z" stroke="#18332A" stroke-linecap="round" stroke-linejoin="round"/>
<path d="M63.3797 52.3575L60.7375 50.832L57.7202 56.0572L60.3625 57.5828C60.7712 55.5585 61.8308 53.7234 63.3797 52.3575Z" fill="#18332A"/>
<path d="M63.3797 52.3575L60.7375 50.832L57.7202 56.0572L60.3625 57.5828C60.7712 55.5585 61.8308 53.7234 63.3797 52.3575Z" stroke="#18332A" stroke-linecap="round" stroke-linejoin="round"/>
<path d="M78.8432 57.5828L81.4862 56.0572L78.4689 50.832L75.8259 52.3575C77.3749 53.7233 78.4346 55.5584 78.8432 57.5828Z" fill="#18332A"/>
<path d="M78.8432 57.5828L81.4862 56.0572L78.4689 50.832L75.8259 52.3575C77.3749 53.7233 78.4346 55.5584 78.8432 57.5828Z" stroke="#18332A" stroke-linecap="round" stroke-linejoin="round"/>
<path d="M60.3632 61.2847L57.7209 62.8102L60.7382 68.0355L63.3804 66.51C61.8315 65.1442 60.7718 63.3091 60.3632 61.2847Z" fill="#18332A"/>
<path d="M60.3632 61.2847L57.7209 62.8102L60.7382 68.0355L63.3804 66.51C61.8315 65.1442 60.7718 63.3091 60.3632 61.2847Z" stroke="#18332A" stroke-linecap="round" stroke-linejoin="round"/>
<path d="M91.4403 25.8248L93.3648 28.188L96.3116 27.4073L96.4788 30.4508L99.3213 31.551L97.6683 34.1115L99.3213 36.672L96.4788 37.7723L96.3116 40.8158L93.3648 40.035L91.4403 42.3983L89.5158 40.035L86.5698 40.8158L86.4018 37.7723L83.5593 36.672L85.2123 34.1115L83.5593 31.551L86.4018 30.4508L86.5698 27.4073L89.5158 28.188L91.4403 25.8248Z" stroke="#18332A" stroke-linecap="round" stroke-linejoin="round"/>
<path d="M67.087 57.7702L89.1423 32.1577" stroke="#18332A" stroke-linecap="round" stroke-linejoin="round"/>
<path d="M72.1255 61.0868L93.8267 35.9573" stroke="#18332A" stroke-linecap="round" stroke-linejoin="round"/>
<path d="M91.4403 31.095C91.0401 31.0887 90.6427 31.1621 90.2711 31.3109C89.8996 31.4596 89.5613 31.6808 89.2761 31.9616C88.9909 32.2424 88.7644 32.5771 88.6097 32.9463C88.4551 33.3154 88.3755 33.7117 88.3755 34.1119C88.3755 34.5121 88.4551 34.9084 88.6097 35.2775C88.7644 35.6467 88.9909 35.9814 89.2761 36.2622C89.5613 36.5429 89.8996 36.7641 90.2711 36.9129C90.6427 37.0617 91.0401 37.1351 91.4403 37.1288C92.2322 37.1163 92.9874 36.7929 93.543 36.2285C94.0986 35.6641 94.41 34.9039 94.41 34.1119C94.41 33.3199 94.0986 32.5597 93.543 31.9953C92.9874 31.4308 92.2322 31.1075 91.4403 31.095Z" fill="#18332A"/>
<path d="M91.4403 31.095C91.0401 31.0887 90.6427 31.1621 90.2711 31.3109C89.8996 31.4596 89.5613 31.6808 89.2761 31.9616C88.9909 32.2424 88.7644 32.5771 88.6097 32.9463C88.4551 33.3154 88.3755 33.7117 88.3755 34.1119C88.3755 34.5121 88.4551 34.9084 88.6097 35.2775C88.7644 35.6467 88.9909 35.9814 89.2761 36.2622C89.5613 36.5429 89.8996 36.7641 90.2711 36.9129C90.6427 37.0617 91.0401 37.1351 91.4403 37.1288C92.2322 37.1163 92.9874 36.7929 93.543 36.2285C94.0986 35.6641 94.41 34.9039 94.41 34.1119C94.41 33.3199 94.0986 32.5597 93.543 31.9953C92.9874 31.4308 92.2322 31.1075 91.4403 31.095Z" stroke="#18332A" stroke-linecap="round" stroke-linejoin="round"/>
<path d="M160.266 140.44H168.195" stroke="#18332A" stroke-linecap="round" stroke-linejoin="round"/>
<path d="M164.231 144.404V136.475" stroke="#18332A" stroke-linecap="round" stroke-linejoin="round"/>
<path d="M141.204 114.073H145.529" stroke="#18332A" stroke-linecap="round" stroke-linejoin="round"/>
<path d="M143.367 116.235V111.91" stroke="#18332A" stroke-linecap="round" stroke-linejoin="round"/>
<path d="M34.4185 133.108L40.0255 138.715" stroke="#18332A" stroke-linecap="round" stroke-linejoin="round"/>
<path d="M34.4185 138.715L40.0255 133.108" stroke="#18332A" stroke-linecap="round" stroke-linejoin="round"/>
<path d="M136.889 49.5165L139.748 52.3762" stroke="#18332A" stroke-linecap="round" stroke-linejoin="round"/>
<path d="M136.889 52.3762L139.748 49.5165" stroke="#18332A" stroke-linecap="round" stroke-linejoin="round"/>
<path d="M123.931 35.0347V37.7107C123.956 39.2716 124.593 40.7601 125.706 41.8551C126.818 42.9501 128.317 43.5638 129.878 43.5638C131.439 43.5638 132.937 42.9501 134.05 41.8551C135.162 40.7601 135.8 39.2716 135.825 37.7107V35.0347H123.93H123.931Z" stroke="#18332A" stroke-linecap="round" stroke-linejoin="round"/>
<path d="M123.931 35.0347H135.825V31.6897C135.825 29.1847 136.838 26.7457 138.737 25.1122C141.35 22.8645 142.988 19.638 142.988 16.05C142.988 9.25725 137.119 3.75075 129.878 3.75075C122.636 3.75075 116.767 9.25725 116.767 16.05C116.767 19.638 118.406 22.8645 121.018 25.1122C122.917 26.7457 123.93 29.1847 123.93 31.6897V35.0347H123.931Z" stroke="#18332A" stroke-linecap="round" stroke-linejoin="round"/>
<path d="M131.006 18.8407V35.0347" stroke="#18332A" stroke-linecap="round" stroke-linejoin="round"/>
<path d="M128.75 35.0348V18.8385" stroke="#18332A" stroke-linecap="round" stroke-linejoin="round"/>
<path d="M128.84 14.7405C127.823 13.1737 126.247 14.46 126.247 16.725C126.247 18.99 127.831 20.2642 128.84 18.7095" stroke="#18332A" stroke-linecap="round" stroke-linejoin="round"/>
<path d="M130.916 14.739C129.9 13.1767 128.324 14.4562 128.324 16.725C128.324 18.9937 129.906 20.2635 130.915 18.711" stroke="#18332A" stroke-linecap="round" stroke-linejoin="round"/>
<path d="M131.952 19.392C132.81 19.392 133.506 18.198 133.506 16.725C133.506 15.252 132.81 14.058 131.952 14.058C131.094 14.058 130.398 15.252 130.398 16.725C130.398 18.198 131.094 19.392 131.952 19.392Z" stroke="#18332A" stroke-linecap="round" stroke-linejoin="round"/>
<path d="M123.931 37.8435H135.825" stroke="#18332A" stroke-linecap="round" stroke-linejoin="round"/>
<path d="M123.931 36.4815H135.825" stroke="#18332A" stroke-linecap="round" stroke-linejoin="round"/>
<path d="M106.391 24.375L111.28 19.488" stroke="#18332A" stroke-linecap="round" stroke-linejoin="round"/>
<path d="M102.697 15.7793H110.987" stroke="#18332A" stroke-linecap="round" stroke-linejoin="round"/>
<path d="M106.707 7.70551L111.099 12.0983" stroke="#18332A" stroke-linecap="round" stroke-linejoin="round"/>
<path d="M154.552 24.375L149.664 19.488" stroke="#18332A" stroke-linecap="round" stroke-linejoin="round"/>
<path d="M157.842 15.7793H149.552" stroke="#18332A" stroke-linecap="round" stroke-linejoin="round"/>
<path d="M154.237 7.70551L149.844 12.0983" stroke="#18332A" stroke-linecap="round" stroke-linejoin="round"/>
</svg>
